<svg data-v-423bf9ae="" xmlns="http://www.w3.org/2000/svg" viewBox="0 0 913.4816820596407 60" class="font"><!----><!----><!----><g data-v-423bf9ae="" id="4f1835e8-2058-482e-8c27-7555ed70d5c9" fill="white" transform="matrix(4.307250444043897,0,0,4.307250444043897,-2.756628497516715,-13.309403740819945)"><path d="M3.46 11.75L3.46 11.75L3.46 11.75Q3.25 11.83 3.11 11.76L3.11 11.76L3.11 11.76Q2.97 11.69 2.97 11.58L2.97 11.58L2.97 11.58Q2.97 11.47 3.04 11.32L3.04 11.32L3.04 11.32Q3.11 11.17 3.16 11.03L3.16 11.03L3.16 11.03Q3.30 10.70 3.05 10.51L3.05 10.51L3.05 10.51Q2.76 10.32 2.46 10.32L2.46 10.32L2.46 10.32Q2.17 10.32 1.91 10.56L1.91 10.56L1.91 10.56Q1.65 10.81 1.65 11.24L1.65 11.24L1.65 11.24Q1.65 11.87 2.27 12.45L2.27 12.45L2.27 12.45Q2.88 13.03 3.95 13.03L3.95 13.03L3.95 13.03Q5.01 13.03 5.72 12.40L5.72 12.40L5.72 12.40Q6.43 11.77 6.43 10.86L6.43 10.86L6.43 10.86Q6.43 9.63 4.58 8.69L4.58 8.69L4.58 8.69Q4.48 8.64 4.14 8.48L4.14 8.48L4.14 8.48Q3.81 8.32 3.68 8.25L3.68 8.25L3.68 8.25Q3.56 8.18 3.27 8.02L3.27 8.02L3.27 8.02Q2.98 7.87 2.82 7.76L2.82 7.76L2.82 7.76Q2.66 7.64 2.44 7.49L2.44 7.49L2.44 7.49Q2.10 7.27 1.72 6.85L1.72 6.85L1.72 6.85Q1.19 6.20 1.19 5.33L1.19 5.33L1.19 5.33Q1.19 4.45 2.04 3.77L2.04 3.77L2.04 3.77Q2.90 3.09 4.05 3.09L4.05 3.09L4.05 3.09Q5.21 3.09 6.02 3.53L6.02 3.53L6.02 3.53Q6.83 3.96 6.83 4.51L6.83 4.51L6.83 4.51Q6.83 4.84 6.55 4.96L6.55 4.96L6.55 4.96Q6.45 4.98 6.30 4.98L6.30 4.98L6.30 4.98Q6.15 4.98 6.00 4.89L6.00 4.89L6.00 4.89Q5.85 4.79 5.66 4.62L5.66 4.62L5.66 4.62Q5.47 4.45 5.32 4.35L5.32 4.35L5.32 4.35Q4.90 4.07 4.17 4.07L4.17 4.07L4.17 4.07Q3.44 4.07 2.88 4.45L2.88 4.45L2.88 4.45Q2.31 4.83 2.31 5.38L2.31 5.38L2.31 5.38Q2.31 5.94 2.84 6.41L2.84 6.41L2.84 6.41Q3.32 6.83 4.34 7.38L4.34 7.38L4.34 7.38Q5.36 7.94 5.70 8.15L5.70 8.15L5.70 8.15Q6.52 8.64 7.04 9.34L7.04 9.34L7.04 9.34Q7.55 10.05 7.55 10.86L7.55 10.86L7.55 10.86Q7.55 12.15 6.54 13.08L6.54 13.08L6.54 13.08Q5.54 14.01 3.99 14.01L3.99 14.01L3.99 14.01Q2.44 14.01 1.54 13.20L1.54 13.20L1.54 13.20Q0.64 12.39 0.64 11.41L0.64 11.41L0.64 11.41Q0.64 10.43 1.16 9.89L1.16 9.89L1.16 9.89Q1.68 9.35 2.46 9.35L2.46 9.35L2.46 9.35Q3.25 9.35 3.67 9.74L3.67 9.74L3.67 9.74Q4.09 10.14 4.09 10.64L4.09 10.64L4.09 10.64Q4.09 11.14 3.82 11.47L3.82 11.47L3.82 11.47Q3.67 11.68 3.46 11.75ZM12.60 7.57L12.60 7.57L12.60 7.57Q11.13 7.57 10.18 10.00L10.18 10.00L10.18 12.22L10.18 12.22Q11.00 13.03 12.17 13.03L12.17 13.03L12.17 13.03Q13.06 13.03 13.74 12.21L13.74 12.21L13.74 12.21Q14.42 11.40 14.42 10.28L14.42 10.28L14.42 10.28Q14.42 9.16 13.94 8.37L13.94 8.37L13.94 8.37Q13.45 7.57 12.60 7.57ZM10.18 13.26L10.18 13.26L10.18 13.26Q10.15 14.32 10.15 15.03L10.15 15.03L10.15 15.03Q10.15 15.74 10.14 16.07L10.14 16.07L10.14 16.07Q10.11 16.65 10.01 16.80L10.01 16.80L10.01 16.80Q9.88 17.02 9.58 17.02L9.58 17.02L9.58 17.02Q9.28 17.02 9.10 16.79L9.10 16.79L9.10 16.79Q8.92 16.55 8.92 16.00L8.92 16.00L8.92 16.00Q8.92 15.46 8.96 14.97L8.96 14.97L9.13 13.30L9.13 13.30Q9.28 11.69 9.31 11.41L9.31 11.41L9.31 11.14L9.32 10.61L9.32 10.39L9.32 10.39Q9.32 9.80 9.20 8.67L9.20 8.67L9.20 8.67Q9.07 7.53 9.07 7.28L9.07 7.28L9.07 7.28Q9.07 7.03 9.23 6.85L9.23 6.85L9.23 6.85Q9.38 6.66 9.62 6.66L9.62 6.66L9.62 6.66Q9.86 6.66 10.01 6.85L10.01 6.85L10.01 6.85Q10.16 7.03 10.16 7.24L10.16 7.24L10.16 7.24Q10.16 7.45 10.16 7.88L10.16 7.88L10.16 7.88Q10.15 8.32 10.15 8.47L10.15 8.47L10.15 8.47Q10.64 7.56 11.22 7.11L11.22 7.11L11.22 7.11Q11.80 6.66 12.70 6.66L12.70 6.66L12.70 6.66Q13.59 6.66 14.24 7.25L14.24 7.25L14.24 7.25Q15.46 8.33 15.46 10.15L15.46 10.15L15.46 10.15Q15.46 11.68 14.53 12.81L14.53 12.81L14.53 12.81Q13.61 13.94 12.17 13.94L12.17 13.94L12.17 13.94Q11.12 13.94 10.18 13.26ZM18.20 10.60L18.20 10.60L18.24 13.23L18.24 13.23Q18.24 13.94 17.71 13.94L17.71 13.94L17.71 13.94Q17.07 13.94 17.07 12.98L17.07 12.98L17.07 12.98Q17.07 12.03 17.35 10.19L17.35 10.19L17.35 10.19Q17.35 9.60 17.23 8.55L17.23 8.55L17.23 8.55Q17.11 7.49 17.11 7.27L17.11 7.27L17.11 7.27Q17.11 7.04 17.26 6.85L17.26 6.85L17.26 6.85Q17.42 6.66 17.65 6.66L17.65 6.66L17.65 6.66Q17.89 6.66 18.05 6.85L18.05 6.85L18.05 6.85Q18.20 7.04 18.20 7.24L18.20 7.24L18.20 7.24Q18.20 7.43 18.19 7.87L18.19 7.87L18.19 7.87Q18.19 8.30 18.19 8.47L18.19 8.47L18.19 8.47Q18.45 7.77 19.05 7.21L19.05 7.21L19.05 7.21Q19.67 6.66 20.28 6.66L20.28 6.66L20.28 6.66Q20.89 6.66 21.25 6.91L21.25 6.91L21.25 6.91Q21.60 7.15 21.60 7.46L21.60 7.46L21.60 7.46Q21.60 7.77 21.45 7.94L21.45 7.94L21.45 7.94Q21.29 8.11 21.05 8.11L21.05 8.11L21.05 8.11Q20.80 8.11 20.51 7.85L20.51 7.85L20.51 7.85Q20.24 7.59 20.06 7.59L20.06 7.59L20.06 7.59Q19.60 7.59 18.98 8.59L18.98 8.59L18.98 8.59Q18.37 9.59 18.20 10.60ZM23.46 3.65L23.46 3.65L23.46 3.65Q24.04 3.65 24.04 4.33L24.04 4.33L24.04 4.33Q24.04 4.63 23.84 4.91L23.84 4.91L23.84 4.91Q23.63 5.18 23.35 5.18L23.35 5.18L23.35 5.18Q22.76 5.18 22.76 4.47L22.76 4.47L22.76 4.47Q22.76 4.13 22.97 3.89L22.97 3.89L22.97 3.89Q23.17 3.65 23.46 3.65ZM23.93 7.36L23.93 7.36L23.86 10.30L23.93 13.24L23.93 13.24Q23.93 13.94 23.39 13.94L23.39 13.94L23.39 13.94Q22.86 13.94 22.86 13.24L22.86 13.24L22.93 10.30L22.86 7.36L22.86 7.36Q22.86 6.66 23.39 6.66L23.39 6.66L23.39 6.66Q23.93 6.66 23.93 7.36ZM31.91 9.39L31.91 9.39L31.84 11.59L31.84 12.19L31.84 12.19Q31.86 12.77 32.12 12.88L32.12 12.88L32.12 12.88Q32.21 12.91 32.34 12.93L32.34 12.93L32.34 12.93Q32.47 12.95 32.52 12.98L32.52 12.98L32.52 12.98Q32.56 13.01 32.56 13.09L32.56 13.09L32.56 13.09Q32.56 13.45 32.33 13.70L32.33 13.70L32.33 13.70Q32.10 13.94 31.79 13.94L31.79 13.94L31.79 13.94Q31.28 13.94 31.07 13.54L31.07 13.54L31.07 13.54Q30.86 13.13 30.86 12.29L30.86 12.29L30.91 9.72L30.91 9.72Q30.91 8.75 30.50 8.17L30.50 8.17L30.50 8.17Q30.09 7.59 29.37 7.59L29.37 7.59L29.37 7.59Q28.66 7.59 27.99 8.38L27.99 8.38L27.99 8.38Q27.33 9.17 27.05 10.19L27.05 10.19L27.09 13.23L27.09 13.23Q27.09 13.94 26.56 13.94L26.56 13.94L26.56 13.94Q25.91 13.94 25.91 12.98L25.91 12.98L25.91 12.98Q25.91 12.03 26.19 10.19L26.19 10.19L26.19 10.19Q26.19 9.60 26.07 8.54L26.07 8.54L26.07 8.54Q25.96 7.48 25.96 7.25L25.96 7.25L25.96 7.25Q25.96 7.03 26.11 6.85L26.11 6.85L26.11 6.85Q26.26 6.66 26.50 6.66L26.50 6.66L26.50 6.66Q26.74 6.66 26.89 6.85L26.89 6.85L26.89 6.85Q27.05 7.03 27.05 7.24L27.05 7.24L27.05 7.24Q27.05 7.45 27.04 7.87L27.04 7.87L27.04 7.87Q27.03 8.29 27.03 8.44L27.03 8.44L27.03 8.44Q28.06 6.66 29.55 6.66L29.55 6.66L29.55 6.66Q30.67 6.66 31.29 7.47L31.29 7.47L31.29 7.47Q31.91 8.27 31.91 9.39ZM38.78 10.53L38.78 10.53L38.78 8.39L38.78 8.39Q38.01 7.57 37.08 7.57L37.08 7.57L37.08 7.57Q36.15 7.57 35.45 8.40L35.45 8.40L35.45 8.40Q34.76 9.23 34.76 10.38L34.76 10.38L34.76 10.38Q34.76 11.54 35.20 12.29L35.20 12.29L35.20 12.29Q35.64 13.03 36.40 13.03L36.40 13.03L36.40 13.03Q37.16 13.03 37.79 12.33L37.79 12.33L37.79 12.33Q38.43 11.62 38.78 10.53ZM38.75 7.32L38.75 7.32L38.75 7.32Q38.78 6.66 39.28 6.66L39.28 6.66L39.28 6.66Q39.93 6.66 39.93 7.62L39.93 7.62L39.93 7.62Q39.93 8.58 39.65 10.42L39.65 10.42L39.65 10.42Q39.82 12.12 39.82 12.96L39.82 12.96L39.82 12.96Q39.82 14.78 38.95 15.90L38.95 15.90L38.95 15.90Q38.08 17.02 36.54 17.02L36.54 17.02L36.54 17.02Q35.70 17.02 34.92 16.67L34.92 16.67L34.92 16.67Q34.13 16.31 34.13 15.95L34.13 15.95L34.13 15.95Q34.13 15.60 34.45 15.60L34.45 15.60L34.45 15.60Q34.58 15.60 35.17 15.86L35.17 15.86L35.17 15.86Q35.76 16.11 36.54 16.11L36.54 16.11L36.54 16.11Q37.66 16.11 38.30 15.28L38.30 15.28L38.30 15.28Q38.95 14.45 38.95 13.10L38.95 13.10L38.95 13.10Q38.95 12.61 38.88 12.10L38.88 12.10L38.88 12.10Q38.56 12.85 37.87 13.40L37.87 13.40L37.87 13.40Q37.18 13.94 36.44 13.94L36.44 13.94L36.44 13.94Q35.10 13.94 34.36 12.78L34.36 12.78L34.36 12.78Q33.73 11.73 33.73 10.33L33.73 10.33L33.73 10.33Q33.73 8.93 34.66 7.80L34.66 7.80L34.66 7.80Q35.60 6.66 37.00 6.66L37.00 6.66L37.00 6.66Q37.97 6.66 38.75 7.32ZM43.40 11.49L43.40 11.49L43.47 9.67L43.47 9.67Q42.55 9.63 42.03 9.23L42.03 9.23L42.03 9.23Q41.52 8.83 41.52 8.30L41.52 8.30L41.52 8.30Q41.52 7.77 42.03 7.38L42.03 7.38L42.03 7.38Q42.55 6.99 43.47 6.85L43.47 6.85L43.47 6.85Q43.34 4.70 43.34 4.41L43.34 4.41L43.34 4.41Q43.34 3.09 45.89 3.09L45.89 3.09L45.89 3.09Q47.68 3.09 48.67 3.83L48.67 3.83L48.67 3.83Q49.66 4.56 49.66 5.66L49.66 5.66L49.66 5.66Q49.66 6.75 48.57 7.69L48.57 7.69L48.57 7.69Q50.43 8.71 50.43 10.40L50.43 10.40L50.43 10.40Q50.43 11.51 49.74 12.36L49.74 12.36L49.74 12.36Q49.06 13.20 47.96 13.61L47.96 13.61L47.96 13.61Q46.87 14.01 45.77 14.01L45.77 14.01L45.77 14.01Q44.53 14.01 43.51 13.71L43.51 13.71L43.51 13.71Q42.49 13.41 41.94 13.01L41.94 13.01L41.94 13.01Q41.40 12.60 41.40 12.33L41.40 12.33L41.40 12.33Q41.40 12.05 41.54 11.91L41.54 11.91L41.54 11.91Q41.68 11.76 41.87 11.76L41.87 11.76L41.87 11.76Q41.87 11.76 41.94 11.76L41.94 11.76L41.94 11.76Q42 11.76 42.31 11.95L42.31 11.95L42.31 11.95Q42.63 12.14 43.03 12.39L43.03 12.39L43.03 12.39Q43.43 12.64 44.08 12.84L44.08 12.84L44.08 12.84Q44.73 13.03 45.37 13.03L45.37 13.03L45.37 13.03Q45.42 13.03 45.46 13.03L45.46 13.03L45.46 13.03Q47.12 13.03 48.22 12.31L48.22 12.31L48.22 12.31Q49.31 11.58 49.31 10.43L49.31 10.43L49.31 10.43Q49.31 9.77 48.92 9.21L48.92 9.21L48.92 9.21Q48.52 8.65 47.85 8.32L47.85 8.32L47.85 8.32Q46.41 9.38 44.48 9.63L44.48 9.63L44.53 11.42L44.53 11.42Q44.53 11.48 44.53 11.52L44.53 11.52L44.53 11.52Q44.53 11.89 44.28 12.04L44.28 12.04L44.28 12.04Q44.13 12.14 43.97 12.14L43.97 12.14L43.67 12.04L43.67 12.04Q43.40 11.87 43.40 11.49ZM44.45 4.40L44.45 4.40L44.45 4.40Q44.45 4.89 44.48 6.76L44.48 6.76L44.48 6.76Q46.17 6.76 47.68 7.29L47.68 7.29L47.68 7.29Q48.62 6.58 48.62 5.73L48.62 5.73L48.62 5.73Q48.62 4.87 47.92 4.47L47.92 4.47L47.92 4.47Q47.22 4.07 46.18 4.07L46.18 4.07L46.18 4.07Q45.14 4.07 44.45 4.40ZM44.45 7.71L44.45 7.71L44.45 8.68L44.45 8.68Q45.07 8.65 45.81 8.44L45.81 8.44L45.81 8.44Q46.56 8.22 46.98 7.94L46.98 7.94L46.98 7.94Q46.21 7.69 44.84 7.69L44.84 7.69L44.84 7.69Q44.59 7.69 44.45 7.71ZM43.48 8.74L43.48 8.74L43.48 7.78L43.48 7.78Q42.49 7.90 42.49 8.25L42.49 8.25L42.49 8.25Q42.49 8.71 43.48 8.74ZM52.81 10.32L52.81 10.32L52.81 10.32Q52.81 11.48 53.45 12.29L53.45 12.29L53.45 12.29Q54.10 13.10 55.07 13.10L55.07 13.10L55.07 13.10Q56.04 13.10 56.72 12.29L56.72 12.29L56.72 12.29Q57.40 11.47 57.40 10.30L57.40 10.30L57.40 10.30Q57.40 9.14 56.75 8.32L56.75 8.32L56.75 8.32Q56.10 7.50 55.14 7.50L55.14 7.50L55.14 7.50Q54.18 7.50 53.48 8.33L53.48 8.33L53.48 8.33Q52.81 9.16 52.81 10.32ZM52.74 12.94L52.74 12.94L52.74 12.94Q51.81 11.87 51.81 10.32L51.81 10.32L51.81 10.32Q51.81 8.76 52.75 7.68L52.75 7.68L52.75 7.68Q53.69 6.59 55.12 6.59L55.12 6.59L55.12 6.59Q56.55 6.59 57.47 7.67L57.47 7.67L57.47 7.67Q58.39 8.74 58.39 10.30L58.39 10.30L58.39 10.30Q58.39 11.86 57.45 12.94L57.45 12.94L57.45 12.94Q56.50 14.01 55.08 14.01L55.08 14.01L55.08 14.01Q53.66 14.01 52.74 12.94ZM65.58 10.42L65.58 10.42L65.58 10.42Q65.58 11.44 65.72 12.12L65.72 12.12L65.72 12.12Q65.87 12.80 66.09 12.88L66.09 12.88L66.09 12.88Q66.18 12.92 66.30 12.94L66.30 12.94L66.30 12.94Q66.42 12.95 66.47 12.98L66.47 12.98L66.47 12.98Q66.51 13.01 66.51 13.09L66.51 13.09L66.51 13.09Q66.51 13.48 66.30 13.71L66.30 13.71L66.30 13.71Q66.09 13.94 65.69 13.94L65.69 13.94L65.69 13.94Q65.30 13.94 65.07 13.43L65.07 13.43L65.07 13.43Q64.85 12.92 64.85 12.10L64.85 12.10L64.85 12.10Q64.47 12.91 63.80 13.43L63.80 13.43L63.80 13.43Q63.13 13.94 62.28 13.94L62.28 13.94L62.28 13.94Q61.43 13.94 60.83 13.38L60.83 13.38L60.83 13.38Q59.71 12.35 59.71 10.46L59.71 10.46L59.71 10.46Q59.71 8.93 60.59 7.80L60.59 7.80L60.59 7.80Q61.47 6.66 62.86 6.66L62.86 6.66L62.86 6.66Q63.91 6.66 64.68 7.38L64.68 7.38L64.68 7.38Q64.68 6.66 65.21 6.66L65.21 6.66L65.21 6.66Q65.86 6.66 65.86 7.62L65.86 7.62L65.86 7.62Q65.86 8.58 65.58 10.42ZM64.76 10.54L64.76 10.54L64.69 8.39L64.69 8.39Q63.87 7.57 62.94 7.57L62.94 7.57L62.94 7.57Q62.02 7.57 61.36 8.40L61.36 8.40L61.36 8.40Q60.70 9.23 60.70 10.39L60.70 10.39L60.70 10.39Q60.70 11.56 61.14 12.30L61.14 12.30L61.14 12.30Q61.57 13.03 62.34 13.03L62.34 13.03L62.34 13.03Q63.11 13.03 63.76 12.35L63.76 12.35L63.76 12.35Q64.41 11.66 64.76 10.54ZM69.12 10.60L69.12 10.60L69.16 13.23L69.16 13.23Q69.16 13.94 68.63 13.94L68.63 13.94L68.63 13.94Q67.98 13.94 67.98 12.98L67.98 12.98L67.98 12.98Q67.98 12.03 68.26 10.19L68.26 10.19L68.26 10.19Q68.26 9.60 68.14 8.55L68.14 8.55L68.14 8.55Q68.03 7.49 68.03 7.27L68.03 7.27L68.03 7.27Q68.03 7.04 68.18 6.85L68.18 6.85L68.18 6.85Q68.33 6.66 68.57 6.66L68.57 6.66L68.57 6.66Q68.81 6.66 68.96 6.85L68.96 6.85L68.96 6.85Q69.12 7.04 69.12 7.24L69.12 7.24L69.12 7.24Q69.12 7.43 69.11 7.87L69.11 7.87L69.11 7.87Q69.10 8.30 69.10 8.47L69.10 8.47L69.10 8.47Q69.37 7.77 69.97 7.21L69.97 7.21L69.97 7.21Q70.59 6.66 71.20 6.66L71.20 6.66L71.20 6.66Q71.81 6.66 72.16 6.91L72.16 6.91L72.16 6.91Q72.52 7.15 72.52 7.46L72.52 7.46L72.52 7.46Q72.52 7.77 72.37 7.94L72.37 7.94L72.37 7.94Q72.21 8.11 71.97 8.11L71.97 8.11L71.97 8.11Q71.72 8.11 71.43 7.85L71.43 7.85L71.43 7.85Q71.16 7.59 70.98 7.59L70.98 7.59L70.98 7.59Q70.52 7.59 69.90 8.59L69.90 8.59L69.90 8.59Q69.29 9.59 69.12 10.60ZM78.53 10.61L78.53 10.61L78.53 8.39L78.53 8.39Q77.70 7.57 76.54 7.57L76.54 7.57L76.54 7.57Q75.66 7.57 74.97 8.39L74.97 8.39L74.97 8.39Q74.28 9.21 74.28 10.32L74.28 10.32L74.28 10.32Q74.28 11.44 74.77 12.25L74.77 12.25L74.77 12.25Q75.26 13.03 76.10 13.03L76.10 13.03L76.10 13.03Q77.57 13.03 78.53 10.61ZM79.11 3.16L79.11 3.16L79.11 3.16Q79.80 3.16 79.80 4.30L79.80 4.30L79.80 4.30Q79.80 4.73 79.74 5.31L79.74 5.31L79.58 7.14L79.58 7.14Q79.42 8.85 79.39 9.20L79.39 9.20L79.39 9.20Q79.39 11.03 79.53 11.94L79.53 11.94L79.53 11.94Q79.66 12.84 80.01 12.91L80.01 12.91L80.01 12.91Q80.37 12.91 80.37 13.12L80.37 13.12L80.37 13.12Q80.37 13.43 80.17 13.69L80.17 13.69L80.17 13.69Q79.97 13.94 79.59 13.94L79.59 13.94L79.59 13.94Q78.81 13.94 78.62 12.07L78.62 12.07L78.62 12.07Q77.59 13.94 76.03 13.94L76.03 13.94L76.03 13.94Q75.11 13.94 74.47 13.36L74.47 13.36L74.47 13.36Q73.25 12.28 73.25 10.46L73.25 10.46L73.25 10.46Q73.25 8.93 74.17 7.80L74.17 7.80L74.17 7.80Q75.10 6.66 76.54 6.66L76.54 6.66L76.54 6.66Q77.59 6.66 78.53 7.35L78.53 7.35L78.53 7.35Q78.55 4.75 78.55 4.17L78.55 4.17L78.55 4.17Q78.55 3.60 78.69 3.38L78.69 3.38L78.69 3.38Q78.82 3.16 79.11 3.16ZM86.39 13.62L86.39 13.62L86.39 13.62Q85.74 13.93 85.41 13.93L85.41 13.93L85.41 13.93Q85.09 13.93 84.87 13.70L84.87 13.70L84.87 13.70Q84.64 13.47 84.64 13.13L84.64 13.13L84.64 13.13Q84.64 12.80 84.85 12.57L84.85 12.57L84.85 12.57Q85.06 12.33 85.33 12.33L85.33 12.33L85.33 12.33Q85.60 12.33 85.93 12.43L85.93 12.43L85.93 12.43Q86.21 11.51 86.21 8.46L86.21 8.46L86.21 8.46Q86.21 6.85 86.03 5.33L86.03 5.33L86.03 5.33Q85.85 3.82 85.85 3.65L85.85 3.65L85.85 3.65Q85.85 3.47 86.00 3.30L86.00 3.30L86.00 3.30Q86.16 3.14 86.39 3.14L86.39 3.14L86.39 3.14Q86.90 3.14 87.01 3.85L87.01 3.85L87.01 3.85Q87.22 5.38 87.22 8.42L87.22 8.42L87.22 8.42Q87.22 11.47 86.93 12.73L86.93 12.73L86.93 12.73Q87.89 13.03 89.28 13.03L89.28 13.03L89.28 13.03Q90.12 13.03 90.73 12.63L90.73 12.63L90.73 12.63Q91.34 12.24 91.34 11.58L91.34 11.58L91.34 11.58Q91.34 11.26 91.13 11.03L91.13 11.03L91.13 11.03Q90.93 10.79 90.64 10.79L90.64 10.79L90.64 10.79Q90.09 10.79 89.98 11.34L89.98 11.34L89.98 11.34Q89.84 11.89 89.57 11.89L89.57 11.89L89.57 11.89Q89.40 11.89 89.28 11.66L89.28 11.66L89.28 11.66Q89.15 11.44 89.15 11.17L89.15 11.17L89.15 11.17Q89.15 10.65 89.58 10.26L89.58 10.26L89.58 10.26Q90.01 9.87 90.66 9.87L90.66 9.87L90.66 9.87Q91.32 9.87 91.85 10.33L91.85 10.33L91.85 10.33Q92.37 10.79 92.37 11.58L92.37 11.58L92.37 11.58Q92.37 12.68 91.46 13.33L91.46 13.33L91.46 13.33Q90.50 14.01 89.21 14.01L89.21 14.01L89.21 14.01Q87.92 14.01 86.39 13.62ZM99.29 10.42L99.29 10.42L99.29 10.42Q99.29 11.44 99.44 12.12L99.44 12.12L99.44 12.12Q99.58 12.80 99.81 12.88L99.81 12.88L99.81 12.88Q99.89 12.92 100.01 12.94L100.01 12.94L100.01 12.94Q100.13 12.95 100.18 12.98L100.18 12.98L100.18 12.98Q100.23 13.01 100.23 13.09L100.23 13.09L100.23 13.09Q100.23 13.48 100.02 13.71L100.02 13.71L100.02 13.71Q99.81 13.94 99.41 13.94L99.41 13.94L99.41 13.94Q99.01 13.94 98.78 13.43L98.78 13.43L98.78 13.43Q98.56 12.92 98.56 12.10L98.56 12.10L98.56 12.10Q98.18 12.91 97.51 13.43L97.51 13.43L97.51 13.43Q96.84 13.94 95.99 13.94L95.99 13.94L95.99 13.94Q95.14 13.94 94.54 13.38L94.54 13.38L94.54 13.38Q93.42 12.35 93.42 10.46L93.42 10.46L93.42 10.46Q93.42 8.93 94.30 7.80L94.30 7.80L94.30 7.80Q95.19 6.66 96.57 6.66L96.57 6.66L96.57 6.66Q97.62 6.66 98.39 7.38L98.39 7.38L98.39 7.38Q98.39 6.66 98.92 6.66L98.92 6.66L98.92 6.66Q99.57 6.66 99.57 7.62L99.57 7.62L99.57 7.62Q99.57 8.58 99.29 10.42ZM98.48 10.54L98.48 10.54L98.41 8.39L98.41 8.39Q97.58 7.57 96.66 7.57L96.66 7.57L96.66 7.57Q95.73 7.57 95.07 8.40L95.07 8.40L95.07 8.40Q94.42 9.23 94.42 10.39L94.42 10.39L94.42 10.39Q94.42 11.56 94.85 12.30L94.85 12.30L94.85 12.30Q95.28 13.03 96.05 13.03L96.05 13.03L96.05 13.03Q96.82 13.03 97.47 12.35L97.47 12.35L97.47 12.35Q98.13 11.66 98.48 10.54ZM107.69 9.39L107.69 9.39L107.62 11.59L107.62 12.19L107.62 12.19Q107.65 12.77 107.90 12.88L107.90 12.88L107.90 12.88Q108.00 12.91 108.12 12.93L108.12 12.93L108.12 12.93Q108.25 12.95 108.30 12.98L108.30 12.98L108.30 12.98Q108.35 13.01 108.35 13.09L108.35 13.09L108.35 13.09Q108.35 13.45 108.11 13.70L108.11 13.70L108.11 13.70Q107.88 13.94 107.58 13.94L107.58 13.94L107.58 13.94Q107.06 13.94 106.85 13.54L106.85 13.54L106.85 13.54Q106.64 13.13 106.64 12.29L106.64 12.29L106.69 9.72L106.69 9.72Q106.69 8.75 106.28 8.17L106.28 8.17L106.28 8.17Q105.87 7.59 105.15 7.59L105.15 7.59L105.15 7.59Q104.44 7.59 103.78 8.38L103.78 8.38L103.78 8.38Q103.11 9.17 102.83 10.19L102.83 10.19L102.87 13.23L102.87 13.23Q102.87 13.94 102.34 13.94L102.34 13.94L102.34 13.94Q101.70 13.94 101.70 12.98L101.70 12.98L101.70 12.98Q101.70 12.03 101.98 10.19L101.98 10.19L101.98 10.19Q101.98 9.60 101.86 8.54L101.86 8.54L101.86 8.54Q101.74 7.48 101.74 7.25L101.74 7.25L101.74 7.25Q101.74 7.03 101.89 6.85L101.89 6.85L101.89 6.85Q102.05 6.66 102.28 6.66L102.28 6.66L102.28 6.66Q102.52 6.66 102.68 6.85L102.68 6.85L102.68 6.85Q102.83 7.03 102.83 7.24L102.83 7.24L102.83 7.24Q102.83 7.45 102.82 7.87L102.82 7.87L102.82 7.87Q102.82 8.29 102.82 8.44L102.82 8.44L102.82 8.44Q103.84 6.66 105.34 6.66L105.34 6.66L105.34 6.66Q106.46 6.66 107.07 7.47L107.07 7.47L107.07 7.47Q107.69 8.27 107.69 9.39ZM114.56 10.53L114.56 10.53L114.56 8.39L114.56 8.39Q113.79 7.57 112.86 7.57L112.86 7.57L112.86 7.57Q111.93 7.57 111.24 8.40L111.24 8.40L111.24 8.40Q110.54 9.23 110.54 10.38L110.54 10.38L110.54 10.38Q110.54 11.54 110.98 12.29L110.98 12.29L110.98 12.29Q111.43 13.03 112.18 13.03L112.18 13.03L112.18 13.03Q112.94 13.03 113.57 12.33L113.57 12.33L113.57 12.33Q114.21 11.62 114.56 10.53ZM114.53 7.32L114.53 7.32L114.53 7.32Q114.56 6.66 115.07 6.66L115.07 6.66L115.07 6.66Q115.71 6.66 115.71 7.62L115.71 7.62L115.71 7.62Q115.71 8.58 115.43 10.42L115.43 10.42L115.43 10.42Q115.60 12.12 115.60 12.96L115.60 12.96L115.60 12.96Q115.60 14.78 114.73 15.90L114.73 15.90L114.73 15.90Q113.86 17.02 112.32 17.02L112.32 17.02L112.32 17.02Q111.48 17.02 110.70 16.67L110.70 16.67L110.70 16.67Q109.91 16.31 109.91 15.95L109.91 15.95L109.91 15.95Q109.91 15.60 110.24 15.60L110.24 15.60L110.24 15.60Q110.36 15.60 110.95 15.86L110.95 15.86L110.95 15.86Q111.54 16.11 112.32 16.11L112.32 16.11L112.32 16.11Q113.44 16.11 114.09 15.28L114.09 15.28L114.09 15.28Q114.73 14.45 114.73 13.10L114.73 13.10L114.73 13.10Q114.73 12.61 114.66 12.10L114.66 12.10L114.66 12.10Q114.34 12.85 113.65 13.40L113.65 13.40L113.65 13.40Q112.97 13.94 112.22 13.94L112.22 13.94L112.22 13.94Q110.88 13.94 110.14 12.78L110.14 12.78L110.14 12.78Q109.51 11.73 109.51 10.33L109.51 10.33L109.51 10.33Q109.51 8.93 110.45 7.80L110.45 7.80L110.45 7.80Q111.38 6.66 112.78 6.66L112.78 6.66L112.78 6.66Q113.75 6.66 114.53 7.32ZM118.78 7.81L118.78 7.81L118.66 10.89L118.66 10.89Q118.66 11.86 119.08 12.45L119.08 12.45L119.08 12.45Q119.49 13.03 120.20 13.03L120.20 13.03L120.20 13.03Q120.92 13.03 121.59 12.24L121.59 12.24L121.59 12.24Q122.25 11.42 122.53 10.42L122.53 10.42L122.49 7.38L122.49 7.38Q122.49 6.66 123.02 6.66L123.02 6.66L123.02 6.66Q123.66 6.66 123.66 7.62L123.66 7.62L123.66 7.62Q123.66 8.58 123.38 10.42L123.38 10.42L123.38 10.42Q123.38 11.44 123.53 12.12L123.53 12.12L123.53 12.12Q123.68 12.80 123.90 12.88L123.90 12.88L123.90 12.88Q123.98 12.92 124.10 12.94L124.10 12.94L124.10 12.94Q124.22 12.95 124.27 12.98L124.27 12.98L124.27 12.98Q124.32 13.01 124.32 13.09L124.32 13.09L124.32 13.09Q124.32 13.47 124.09 13.71L124.09 13.71L124.09 13.71Q123.86 13.94 123.51 13.94L123.51 13.94L123.51 13.94Q122.63 13.94 122.63 12.15L122.63 12.15L122.63 12.15Q121.59 13.94 120.02 13.94L120.02 13.94L120.02 13.94Q118.90 13.94 118.29 13.12L118.29 13.12L118.29 13.12Q117.67 12.26 117.67 11.07L117.67 11.07L117.75 8.96L117.75 8.96Q117.75 8.53 117.64 7.92L117.64 7.92L117.64 7.92Q117.53 7.31 117.53 7.15L117.53 7.15L117.53 7.15Q117.53 7 117.70 6.83L117.70 6.83L117.70 6.83Q117.88 6.66 118.13 6.66L118.13 6.66L118.13 6.66Q118.78 6.66 118.78 7.81ZM131.32 10.42L131.32 10.42L131.32 10.42Q131.32 11.44 131.47 12.12L131.47 12.12L131.47 12.12Q131.61 12.80 131.84 12.88L131.84 12.88L131.84 12.88Q131.92 12.92 132.04 12.94L132.04 12.94L132.04 12.94Q132.16 12.95 132.21 12.98L132.21 12.98L132.21 12.98Q132.26 13.01 132.26 13.09L132.26 13.09L132.26 13.09Q132.26 13.48 132.05 13.71L132.05 13.71L132.05 13.71Q131.84 13.94 131.44 13.94L131.44 13.94L131.44 13.94Q131.04 13.94 130.82 13.43L130.82 13.43L130.82 13.43Q130.59 12.92 130.59 12.10L130.59 12.10L130.59 12.10Q130.21 12.91 129.54 13.43L129.54 13.43L129.54 13.43Q128.87 13.94 128.02 13.94L128.02 13.94L128.02 13.94Q127.18 13.94 126.57 13.38L126.57 13.38L126.57 13.38Q125.45 12.35 125.45 10.46L125.45 10.46L125.45 10.46Q125.45 8.93 126.34 7.80L126.34 7.80L126.34 7.80Q127.22 6.66 128.60 6.66L128.60 6.66L128.60 6.66Q129.65 6.66 130.42 7.38L130.42 7.38L130.42 7.38Q130.42 6.66 130.96 6.66L130.96 6.66L130.96 6.66Q131.60 6.66 131.60 7.62L131.60 7.62L131.60 7.62Q131.60 8.58 131.32 10.42ZM130.51 10.54L130.51 10.54L130.44 8.39L130.44 8.39Q129.61 7.57 128.69 7.57L128.69 7.57L128.69 7.57Q127.76 7.57 127.11 8.40L127.11 8.40L127.11 8.40Q126.45 9.23 126.45 10.39L126.45 10.39L126.45 10.39Q126.45 11.56 126.88 12.30L126.88 12.30L126.88 12.30Q127.32 13.03 128.09 13.03L128.09 13.03L128.09 13.03Q128.86 13.03 129.51 12.35L129.51 12.35L129.51 12.35Q130.16 11.66 130.51 10.54ZM138.43 10.53L138.43 10.53L138.43 8.39L138.43 8.39Q137.66 7.57 136.73 7.57L136.73 7.57L136.73 7.57Q135.80 7.57 135.11 8.40L135.11 8.40L135.11 8.40Q134.41 9.23 134.41 10.38L134.41 10.38L134.41 10.38Q134.41 11.54 134.85 12.29L134.85 12.29L134.85 12.29Q135.30 13.03 136.05 13.03L136.05 13.03L136.05 13.03Q136.81 13.03 137.44 12.33L137.44 12.33L137.44 12.33Q138.08 11.62 138.43 10.53ZM138.40 7.32L138.40 7.32L138.40 7.32Q138.43 6.66 138.94 6.66L138.94 6.66L138.94 6.66Q139.58 6.66 139.58 7.62L139.58 7.62L139.58 7.62Q139.58 8.58 139.30 10.42L139.30 10.42L139.30 10.42Q139.47 12.12 139.47 12.96L139.47 12.96L139.47 12.96Q139.47 14.78 138.60 15.90L138.60 15.90L138.60 15.90Q137.73 17.02 136.19 17.02L136.19 17.02L136.19 17.02Q135.35 17.02 134.57 16.67L134.57 16.67L134.57 16.67Q133.78 16.31 133.78 15.95L133.78 15.95L133.78 15.95Q133.78 15.60 134.11 15.60L134.11 15.60L134.11 15.60Q134.23 15.60 134.82 15.86L134.82 15.86L134.82 15.86Q135.41 16.11 136.19 16.11L136.19 16.11L136.19 16.11Q137.31 16.11 137.96 15.28L137.96 15.28L137.96 15.28Q138.60 14.45 138.60 13.10L138.60 13.10L138.60 13.10Q138.60 12.61 138.53 12.10L138.53 12.10L138.53 12.10Q138.21 12.85 137.52 13.40L137.52 13.40L137.52 13.40Q136.84 13.94 136.09 13.94L136.09 13.94L136.09 13.94Q134.75 13.94 134.01 12.78L134.01 12.78L134.01 12.78Q133.38 11.73 133.38 10.33L133.38 10.33L133.38 10.33Q133.38 8.93 134.32 7.80L134.32 7.80L134.32 7.80Q135.25 6.66 136.65 6.66L136.65 6.66L136.65 6.66Q137.62 6.66 138.40 7.32ZM144.97 7.50L144.97 7.50L144.97 7.50Q144.05 7.50 143.42 8.20L143.42 8.20L143.42 8.20Q142.80 8.89 142.60 9.81L142.60 9.81L142.60 9.81Q143.36 10.04 144.31 10.04L144.31 10.04L144.31 10.04Q145.25 10.04 145.82 9.72L145.82 9.72L145.82 9.72Q146.40 9.39 146.40 8.83L146.40 8.83L146.40 8.83Q146.40 8.27 146.01 7.89L146.01 7.89L146.01 7.89Q145.63 7.50 144.97 7.50ZM144.37 10.92L144.37 10.92L144.37 10.92Q143.64 10.92 142.59 10.71L142.59 10.71L142.59 10.71Q142.67 11.70 143.33 12.40L143.33 12.40L143.33 12.40Q143.98 13.10 144.84 13.10L144.84 13.10L144.84 13.10Q145.71 13.10 146.27 12.68L146.27 12.68L146.27 12.68Q146.83 12.25 147.01 12.25L147.01 12.25L147.01 12.25Q147.18 12.25 147.29 12.36L147.29 12.36L147.29 12.36Q147.39 12.46 147.39 12.61L147.39 12.61L147.39 12.61Q147.39 13.01 146.59 13.51L146.59 13.51L146.59 13.51Q145.78 14.01 144.84 14.01L144.84 14.01L144.84 14.01Q143.39 14.01 142.53 12.98L142.53 12.98L142.53 12.98Q141.67 11.96 141.61 10.53L141.61 10.53L141.61 10.53Q140.87 10.29 140.87 9.80L140.87 9.80L140.87 9.80Q140.87 9.48 141.11 9.38L141.11 9.38L141.11 9.38Q141.19 9.35 141.32 9.35L141.32 9.35L141.32 9.35Q141.46 9.35 141.69 9.48L141.69 9.48L141.69 9.48Q142.02 8.20 142.86 7.40L142.86 7.40L142.86 7.40Q143.71 6.59 144.85 6.59L144.85 6.59L144.85 6.59Q145.99 6.59 146.69 7.22L146.69 7.22L146.69 7.22Q147.39 7.85 147.39 8.87L147.39 8.87L147.39 8.87Q147.39 9.88 146.52 10.40L146.52 10.40L146.52 10.40Q145.66 10.92 144.37 10.92ZM159.49 9.07L159.49 9.07L159.49 9.07Q158.16 4.76 157.98 4.76L157.98 4.76L157.98 4.76Q157.81 4.76 156.80 7.95L156.80 7.95L156.46 9.02L156.46 9.02Q157.08 8.92 157.83 8.92L157.83 8.92L157.83 8.92Q158.58 8.92 159.49 9.07ZM155.13 10.18L155.13 10.18L155.13 10.18Q154.15 10.50 153.46 11.19L153.46 11.19L153.46 11.19Q152.77 11.87 152.77 12.47L152.77 12.47L152.77 12.47Q152.77 12.77 152.91 12.93L152.91 12.93L152.91 12.93Q153.06 13.09 153.30 13.09L153.30 13.09L153.30 13.09Q154.07 13.09 155.13 10.18ZM162.50 13.08L162.50 13.08L162.50 13.08Q162.50 13.50 162.27 13.76L162.27 13.76L162.27 13.76Q162.05 14.01 161.71 14.01L161.71 14.01L161.71 14.01Q161.10 14.01 160.78 13.10L160.78 13.10L160.78 13.10Q160.15 11.23 159.77 10.00L159.77 10.00L159.77 10.00Q158.70 9.81 157.83 9.81L157.83 9.81L157.83 9.81Q156.95 9.81 156.23 9.95L156.23 9.95L156.23 9.95Q155.32 12.24 154.88 12.92L154.88 12.92L154.88 12.92Q154.18 14.01 153.26 14.01L153.26 14.01L153.26 14.01Q152.61 14.01 152.24 13.58L152.24 13.58L152.24 13.58Q151.86 13.15 151.86 12.50L151.86 12.50L151.86 12.50Q151.86 11.54 152.84 10.56L152.84 10.56L152.84 10.56Q153.82 9.58 155.39 9.21L155.39 9.21L155.39 9.21Q156.00 7.50 156.54 5.84L156.54 5.84L156.54 5.84Q157.08 4.17 157.15 4.00L157.15 4.00L157.15 4.00Q157.44 3.16 157.96 3.16L157.96 3.16L157.96 3.16Q158.54 3.16 158.82 3.89L158.82 3.89L158.82 3.89Q158.89 4.09 159.21 5.05L159.21 5.05L160.59 9.25L160.59 9.25Q161.17 9.42 161.53 9.69L161.53 9.69L161.53 9.69Q161.90 9.95 161.90 10.15L161.90 10.15L161.90 10.15Q161.90 10.47 161.55 10.47L161.55 10.47L161.55 10.47Q161.42 10.47 160.87 10.28L160.87 10.28L160.87 10.28Q161.48 12.22 161.66 12.50L161.66 12.50L161.66 12.50Q161.84 12.78 161.95 12.84L161.95 12.84L161.95 12.84Q162.06 12.89 162.20 12.92L162.20 12.92L162.20 12.92Q162.50 12.98 162.50 13.08ZM169.09 12.36L169.09 12.36L169.09 12.36Q169.44 12.36 169.44 12.73L169.44 12.73L169.44 12.73Q169.44 13.10 168.63 13.57L168.63 13.57L168.63 13.57Q167.80 14.01 166.92 14.01L166.92 14.01L166.92 14.01Q165.47 14.01 164.47 12.94L164.47 12.94L164.47 12.94Q163.49 11.86 163.49 10.30L163.49 10.30L163.49 10.30Q163.49 8.75 164.47 7.67L164.47 7.67L164.47 7.67Q165.45 6.59 167.08 6.59L167.08 6.59L167.08 6.59Q167.94 6.59 168.63 6.99L168.63 6.99L168.63 6.99Q169.32 7.39 169.32 7.78L169.32 7.78L169.32 7.78Q169.32 8.18 169.04 8.29L169.04 8.29L169.04 8.29Q168.95 8.32 168.80 8.32L168.80 8.32L168.80 8.32Q168.66 8.32 168.43 8.12L168.43 8.12L168.43 8.12Q167.69 7.50 166.95 7.50L166.95 7.50L166.95 7.50Q165.98 7.50 165.26 8.32L165.26 8.32L165.26 8.32Q164.54 9.13 164.54 10.30L164.54 10.30L164.54 10.30Q164.54 11.47 165.28 12.29L165.28 12.29L165.28 12.29Q166.01 13.10 167.08 13.10L167.08 13.10L167.08 13.10Q167.92 13.10 168.69 12.54L168.69 12.54L168.69 12.54Q168.95 12.36 169.09 12.36ZM176.40 10.42L176.40 10.42L176.40 10.42Q176.40 11.44 176.55 12.12L176.55 12.12L176.55 12.12Q176.69 12.80 176.92 12.88L176.92 12.88L176.92 12.88Q177.00 12.92 177.12 12.94L177.12 12.94L177.12 12.94Q177.24 12.95 177.29 12.98L177.29 12.98L177.29 12.98Q177.34 13.01 177.34 13.09L177.34 13.09L177.34 13.09Q177.34 13.48 177.13 13.71L177.13 13.71L177.13 13.71Q176.92 13.94 176.52 13.94L176.52 13.94L176.52 13.94Q176.12 13.94 175.90 13.43L175.90 13.43L175.90 13.43Q175.67 12.92 175.67 12.10L175.67 12.10L175.67 12.10Q175.29 12.91 174.62 13.43L174.62 13.43L174.62 13.43Q173.95 13.94 173.10 13.94L173.10 13.94L173.10 13.94Q172.26 13.94 171.65 13.38L171.65 13.38L171.65 13.38Q170.53 12.35 170.53 10.46L170.53 10.46L170.53 10.46Q170.53 8.93 171.42 7.80L171.42 7.80L171.42 7.80Q172.30 6.66 173.68 6.66L173.68 6.66L173.68 6.66Q174.73 6.66 175.50 7.38L175.50 7.38L175.50 7.38Q175.50 6.66 176.04 6.66L176.04 6.66L176.04 6.66Q176.68 6.66 176.68 7.62L176.68 7.62L176.68 7.62Q176.68 8.58 176.40 10.42ZM175.59 10.54L175.59 10.54L175.52 8.39L175.52 8.39Q174.69 7.57 173.77 7.57L173.77 7.57L173.77 7.57Q172.84 7.57 172.19 8.40L172.19 8.40L172.19 8.40Q171.53 9.23 171.53 10.39L171.53 10.39L171.53 10.39Q171.53 11.56 171.96 12.30L171.96 12.30L171.96 12.30Q172.40 13.03 173.17 13.03L173.17 13.03L173.17 13.03Q173.94 13.03 174.59 12.35L174.59 12.35L174.59 12.35Q175.24 11.66 175.59 10.54ZM183.74 10.61L183.74 10.61L183.74 8.39L183.74 8.39Q182.91 7.57 181.75 7.57L181.75 7.57L181.75 7.57Q180.87 7.57 180.18 8.39L180.18 8.39L180.18 8.39Q179.49 9.21 179.49 10.32L179.49 10.32L179.49 10.32Q179.49 11.44 179.98 12.25L179.98 12.25L179.98 12.25Q180.47 13.03 181.31 13.03L181.31 13.03L181.31 13.03Q182.78 13.03 183.74 10.61ZM184.32 3.16L184.32 3.16L184.32 3.16Q185.01 3.16 185.01 4.30L185.01 4.30L185.01 4.30Q185.01 4.73 184.95 5.31L184.95 5.31L184.79 7.14L184.79 7.14Q184.63 8.85 184.60 9.20L184.60 9.20L184.60 9.20Q184.60 11.03 184.74 11.94L184.74 11.94L184.74 11.94Q184.87 12.84 185.22 12.91L185.22 12.91L185.22 12.91Q185.58 12.91 185.58 13.12L185.58 13.12L185.58 13.12Q185.58 13.43 185.38 13.69L185.38 13.69L185.38 13.69Q185.18 13.94 184.80 13.94L184.80 13.94L184.80 13.94Q184.02 13.94 183.83 12.07L183.83 12.07L183.83 12.07Q182.80 13.94 181.24 13.94L181.24 13.94L181.24 13.94Q180.32 13.94 179.68 13.36L179.68 13.36L179.68 13.36Q178.46 12.28 178.46 10.46L178.46 10.46L178.46 10.46Q178.46 8.93 179.38 7.80L179.38 7.80L179.38 7.80Q180.31 6.66 181.75 6.66L181.75 6.66L181.75 6.66Q182.80 6.66 183.74 7.35L183.74 7.35L183.74 7.35Q183.76 4.75 183.76 4.17L183.76 4.17L183.76 4.17Q183.76 3.60 183.90 3.38L183.90 3.38L183.90 3.38Q184.03 3.16 184.32 3.16ZM190.40 7.50L190.40 7.50L190.40 7.50Q189.48 7.50 188.85 8.20L188.85 8.20L188.85 8.20Q188.23 8.89 188.03 9.81L188.03 9.81L188.03 9.81Q188.79 10.04 189.73 10.04L189.73 10.04L189.73 10.04Q190.68 10.04 191.25 9.72L191.25 9.72L191.25 9.72Q191.83 9.39 191.83 8.83L191.83 8.83L191.83 8.83Q191.83 8.27 191.44 7.89L191.44 7.89L191.44 7.89Q191.06 7.50 190.40 7.50ZM189.80 10.92L189.80 10.92L189.80 10.92Q189.07 10.92 188.02 10.71L188.02 10.71L188.02 10.71Q188.10 11.70 188.75 12.40L188.75 12.40L188.75 12.40Q189.41 13.10 190.27 13.10L190.27 13.10L190.27 13.10Q191.14 13.10 191.70 12.68L191.70 12.68L191.70 12.68Q192.26 12.25 192.44 12.25L192.44 12.25L192.44 12.25Q192.61 12.25 192.72 12.36L192.72 12.36L192.72 12.36Q192.82 12.46 192.82 12.61L192.82 12.61L192.82 12.61Q192.82 13.01 192.02 13.51L192.02 13.51L192.02 13.51Q191.21 14.01 190.27 14.01L190.27 14.01L190.27 14.01Q188.82 14.01 187.96 12.98L187.96 12.98L187.96 12.98Q187.10 11.96 187.04 10.53L187.04 10.53L187.04 10.53Q186.30 10.29 186.30 9.80L186.30 9.80L186.30 9.80Q186.30 9.48 186.54 9.38L186.54 9.38L186.54 9.38Q186.62 9.35 186.75 9.35L186.75 9.35L186.75 9.35Q186.89 9.35 187.12 9.48L187.12 9.48L187.12 9.48Q187.45 8.20 188.29 7.40L188.29 7.40L188.29 7.40Q189.14 6.59 190.28 6.59L190.28 6.59L190.28 6.59Q191.42 6.59 192.12 7.22L192.12 7.22L192.12 7.22Q192.82 7.85 192.82 8.87L192.82 8.87L192.82 8.87Q192.82 9.88 191.95 10.40L191.95 10.40L191.95 10.40Q191.09 10.92 189.80 10.92ZM204.62 9.39L204.62 9.39L204.55 11.59L204.55 12.19L204.55 12.19Q204.58 12.77 204.83 12.88L204.83 12.88L204.83 12.88Q204.93 12.91 205.06 12.93L205.06 12.93L205.06 12.93Q205.18 12.95 205.23 12.98L205.23 12.98L205.23 12.98Q205.28 13.01 205.28 13.09L205.28 13.09L205.28 13.09Q205.28 13.45 205.05 13.70L205.05 13.70L205.05 13.70Q204.82 13.94 204.51 13.94L204.51 13.94L204.51 13.94Q203.99 13.94 203.78 13.54L203.78 13.54L203.78 13.54Q203.57 13.13 203.57 12.29L203.57 12.29L203.63 9.72L203.63 9.72Q203.63 8.75 203.25 8.17L203.25 8.17L203.25 8.17Q202.87 7.59 202.22 7.59L202.22 7.59L202.22 7.59Q201.56 7.59 200.93 8.39L200.93 8.39L200.93 8.39Q200.30 9.18 200.05 10.19L200.05 10.19L200.09 13.23L200.09 13.23Q200.09 13.94 199.56 13.94L199.56 13.94L199.56 13.94Q198.91 13.94 198.91 12.98L198.91 12.98L198.91 12.98Q198.91 12.03 199.19 10.19L199.19 10.19L199.19 10.19Q199.19 7.59 197.76 7.59L197.76 7.59L197.76 7.59Q197.11 7.59 196.48 8.39L196.48 8.39L196.48 8.39Q195.85 9.18 195.59 10.19L195.59 10.19L195.64 13.23L195.64 13.23Q195.64 13.94 195.10 13.94L195.10 13.94L195.10 13.94Q194.46 13.94 194.46 12.98L194.46 12.98L194.46 12.98Q194.46 12.03 194.74 10.19L194.74 10.19L194.74 10.19Q194.74 9.60 194.62 8.54L194.62 8.54L194.62 8.54Q194.50 7.48 194.50 7.25L194.50 7.25L194.50 7.25Q194.50 7.03 194.66 6.85L194.66 6.85L194.66 6.85Q194.81 6.66 195.05 6.66L195.05 6.66L195.05 6.66Q195.29 6.66 195.44 6.85L195.44 6.85L195.44 6.85Q195.59 7.03 195.59 7.24L195.59 7.24L195.59 7.24Q195.59 7.45 195.59 7.87L195.59 7.87L195.59 7.87Q195.58 8.29 195.58 8.44L195.58 8.44L195.58 8.44Q196.52 6.66 197.96 6.66L197.96 6.66L197.96 6.66Q198.77 6.66 199.30 7.14L199.30 7.14L199.30 7.14Q199.82 7.62 200.03 8.44L200.03 8.44L200.03 8.44Q200.97 6.66 202.41 6.66L202.41 6.66L202.41 6.66Q203.48 6.66 204.04 7.46L204.04 7.46L204.04 7.46Q204.62 8.26 204.62 9.39ZM211.58 10.42L211.58 10.42L211.54 7.38L211.54 7.38Q211.54 6.66 212.07 6.66L212.07 6.66L212.07 6.66Q212.72 6.66 212.72 7.71L212.72 7.71L212.72 7.71Q212.72 8.54 212.42 10.42L212.42 10.42L212.42 10.42Q212.59 12.12 212.59 12.96L212.59 12.96L212.59 12.96Q212.59 14.80 211.69 15.91L211.69 15.91L211.69 15.91Q210.78 17.02 209.17 17.02L209.17 17.02L209.17 17.02Q208.33 17.02 207.55 16.67L207.55 16.67L207.55 16.67Q206.77 16.31 206.77 15.95L206.77 15.95L206.77 15.95Q206.77 15.60 207.09 15.60L207.09 15.60L207.09 15.60Q207.23 15.60 207.86 15.86L207.86 15.86L207.86 15.86Q208.49 16.11 209.17 16.11L209.17 16.11L209.17 16.11Q210.34 16.11 211.03 15.28L211.03 15.28L211.03 15.28Q211.72 14.45 211.72 13.10L211.72 13.10L211.72 13.10Q211.72 12.61 211.68 12.15L211.68 12.15L211.68 12.15Q210.64 13.94 209.08 13.94L209.08 13.94L209.08 13.94Q207.96 13.94 207.34 13.12L207.34 13.12L207.34 13.12Q206.72 12.26 206.72 11.07L206.72 11.07L206.81 8.96L206.81 8.96Q206.81 8.53 206.70 7.92L206.70 7.92L206.70 7.92Q206.58 7.31 206.58 7.15L206.58 7.15L206.58 7.15Q206.58 7 206.76 6.83L206.76 6.83L206.76 6.83Q206.93 6.66 207.19 6.66L207.19 6.66L207.19 6.66Q207.83 6.66 207.83 7.81L207.83 7.81L207.72 10.89L207.72 10.89Q207.72 11.86 208.13 12.45L208.13 12.45L208.13 12.45Q208.54 13.03 209.26 13.03L209.26 13.03L209.26 13.03Q209.97 13.03 210.64 12.24L210.64 12.24L210.64 12.24Q211.30 11.42 211.58 10.42Z"></path></g><!----><!----></svg>